<?xml version="1.0" encoding="utf-8"?>
<!-- Generator: Adobe Illustrator 24.0.1, SVG Export Plug-In . SVG Version: 6.00 Build 0)  -->
<svg version="1.1" id="_24x24_On_Light_Facebook" xmlns="http://www.w3.org/2000/svg" xmlns:xlink="http://www.w3.org/1999/xlink"
	 x="0px" y="0px" viewBox="0 0 24 24" style="enable-background:new 0 0 24 24;" xml:space="preserve">
<style type="text/css">
	.st0{fill:none;}
	.st1{fill:#293179;}
</style>
<rect id="view-box" y="0" class="st0" width="24" height="24"/>
<path id="Shape-2" class="st1" d="M13.4,23.9L13.4,23.9v-8.1h2.8l0.4-3.2h-3.3v-2c0-0.9,0.3-1.6,1.6-1.6h1.7V6.1
	C16,6.1,15.1,6,14.3,6c-2.2-0.2-4.1,1.4-4.2,3.6c0,0.2,0,0.4,0,0.6v2.4H7.2v3.2H10v8c-6.5-1.1-11-7.3-9.9-13.8S7.4-0.9,14,0.2
	s11,7.3,9.9,13.8C23,19.2,18.7,23.3,13.4,23.9L13.4,23.9z"/>
</svg>
