<?xml version="1.0" encoding="utf-8"?>
<!-- Generator: Adobe Illustrator 24.0.1, SVG Export Plug-In . SVG Version: 6.00 Build 0)  -->
<svg version="1.1" id="Слой_1" xmlns="http://www.w3.org/2000/svg" xmlns:xlink="http://www.w3.org/1999/xlink" x="0px" y="0px"
	 width="302.6px" height="338px" viewBox="0 0 302.6 338" style="enable-background:new 0 0 302.6 338;" xml:space="preserve">
<polygon style="fill:none;stroke:#2C2F7B;stroke-width:3;stroke-miterlimit:10;" points="289.3,280.1 12.5,280.1 154.7,3.4 "/>
<g>
	<path style="fill:#2A3178;" d="M182.2,96.8c-24.4,5.9-59.5,22.5-65,47.2c-8.8,29.5,44.6,32.7,56.7,51
		c30.9,40.6-26.3,89.3-72.3,75.7c-11.5-4.7-7-23.5,12-15.9c15.1,2.9,36.9-6.6,48-21.9c21.5-35.6-34.6-41.1-49.6-55.8
		c-34.2-34.6,10.7-78,48.3-91.2C173.7,65.4,201.3,85.8,182.2,96.8z"/>
</g>
<polygon style="fill:#2A3178;" points="102.2,261.5 96.4,258.2 203.3,73.1 200.2,71.6 215.1,59.2 212.2,78.1 209.1,76.3 "/>
<g>
	<path style="fill:#283375;" d="M0,297.4c3.2-0.5,7-0.8,11.1-0.8c7.5,0,12.8,1.7,16.4,5c3.6,3.3,5.7,8,5.7,14.5c0,6.6-2,12-5.8,15.7
		c-3.8,3.8-10,5.8-17.9,5.8c-3.7,0-6.8-0.2-9.5-0.5V297.4z M5.2,333.2c1.3,0.2,3.2,0.3,5.3,0.3c11.2,0,17.2-6.2,17.2-17.2
		c0.1-9.5-5.3-15.6-16.4-15.6c-2.7,0-4.7,0.2-6.1,0.5V333.2z"/>
	<path style="fill:#283375;" d="M66.3,322.6c0,10.7-7.4,15.4-14.5,15.4c-7.9,0-13.9-5.8-13.9-14.9c0-9.7,6.4-15.4,14.4-15.4
		C60.7,307.6,66.3,313.7,66.3,322.6z M43.3,322.9c0,6.4,3.7,11.2,8.8,11.2c5,0,8.8-4.7,8.8-11.3c0-4.9-2.5-11.2-8.7-11.2
		C46,311.6,43.3,317.3,43.3,322.9z"/>
	<path style="fill:#283375;" d="M73,316.1c0-3-0.1-5.5-0.2-7.9h4.6l0.2,4.7h0.2c1.6-2.8,4.3-5.3,9.1-5.3c4,0,7,2.4,8.2,5.8h0.1
		c0.9-1.6,2-2.9,3.2-3.8c1.7-1.3,3.7-2,6.4-2c3.8,0,9.5,2.5,9.5,12.6v17.1h-5.2v-16.4c0-5.6-2-8.9-6.3-8.9c-3,0-5.3,2.2-6.2,4.8
		c-0.2,0.7-0.4,1.7-0.4,2.6v17.9h-5.2v-17.4c0-4.6-2-8-6.1-8c-3.3,0-5.7,2.6-6.5,5.3c-0.3,0.8-0.4,1.7-0.4,2.6v17.5H73V316.1z"/>
	<path style="fill:#283375;" d="M139.1,337.3l-0.4-3.7h-0.2c-1.6,2.3-4.7,4.3-8.9,4.3c-5.9,0-8.9-4.1-8.9-8.3
		c0-7,6.2-10.9,17.5-10.8v-0.6c0-2.4-0.7-6.7-6.6-6.7c-2.7,0-5.5,0.8-7.6,2.2l-1.2-3.5c2.4-1.6,5.9-2.6,9.5-2.6
		c8.9,0,11,6.1,11,11.9v10.9c0,2.5,0.1,5,0.5,7H139.1z M138.3,322.5c-5.8-0.1-12.3,0.9-12.3,6.5c0,3.4,2.3,5,5,5
		c3.8,0,6.2-2.4,7-4.9c0.2-0.5,0.3-1.1,0.3-1.7V322.5z"/>
	<path style="fill:#283375;" d="M151.9,316.1c0-3-0.1-5.5-0.2-7.9h4.7l0.3,4.8h0.1c1.4-2.8,4.8-5.5,9.6-5.5c4,0,10.3,2.4,10.3,12.4
		v17.3h-5.3v-16.7c0-4.7-1.7-8.6-6.7-8.6c-3.5,0-6.2,2.5-7.1,5.4c-0.2,0.7-0.4,1.6-0.4,2.5v17.5h-5.3V316.1z"/>
	<path style="fill:#283375;" d="M188.2,323.8c0.1,7.1,4.7,10.1,10,10.1c3.8,0,6.1-0.7,8-1.5l0.9,3.8c-1.9,0.8-5,1.8-9.7,1.8
		c-8.9,0-14.3-5.9-14.3-14.6c0-8.8,5.2-15.7,13.6-15.7c9.5,0,12,8.3,12,13.7c0,1.1-0.1,1.9-0.2,2.5H188.2z M203.6,320
		c0.1-3.4-1.4-8.6-7.3-8.6c-5.3,0-7.7,4.9-8.1,8.6H203.6z"/>
	<path style="fill:#283375;" d="M217.3,308.3l5.7,16.3c1,2.6,1.7,5,2.3,7.4h0.2c0.7-2.4,1.5-4.8,2.5-7.4l5.6-16.3h5.5l-11.4,29h-5
		l-11-29H217.3z"/>
	<path style="fill:#283375;" d="M243.1,331.9c1.6,1,4.3,2.1,7,2.1c3.8,0,5.6-1.9,5.6-4.3c0-2.5-1.5-3.9-5.4-5.3
		c-5.2-1.9-7.7-4.7-7.7-8.2c0-4.7,3.8-8.5,10-8.5c2.9,0,5.5,0.8,7.1,1.8l-1.3,3.8c-1.1-0.7-3.2-1.7-5.9-1.7c-3.1,0-4.9,1.8-4.9,4
		c0,2.4,1.7,3.5,5.5,4.9c5,1.9,7.6,4.4,7.6,8.8c0,5.1-4,8.7-10.9,8.7c-3.2,0-6.1-0.8-8.2-2L243.1,331.9z"/>
	<path style="fill:#283375;" d="M272.8,321.6h0.1c0.7-1,1.7-2.3,2.6-3.3l8.5-10h6.4l-11.2,11.9l12.8,17.1h-6.4l-10-13.9l-2.7,3v10.9
		h-5.2v-42.6h5.2V321.6z"/>
	<path style="fill:#283375;" d="M302.6,300.1c0.1,1.8-1.3,3.2-3.4,3.2c-1.9,0-3.2-1.4-3.2-3.2c0-1.9,1.4-3.3,3.3-3.3
		C301.3,296.8,302.6,298.3,302.6,300.1z M296.7,337.3v-29h5.3v29H296.7z"/>
</g>
</svg>
