<?xml version="1.0" encoding="utf-8"?>
<!-- Generator: Adobe Illustrator 24.0.1, SVG Export Plug-In . SVG Version: 6.00 Build 0)  -->
<svg version="1.1" id="svg2" xmlns="http://www.w3.org/2000/svg" xmlns:xlink="http://www.w3.org/1999/xlink" x="0px" y="0px"
	 viewBox="0 0 240 240" style="enable-background:new 0 0 240 240;" xml:space="preserve">
<style type="text/css">
	.st0{fill:#293179;}
	.st1{fill:url(#path2991_1_);}
</style>
<path id="path2995-1-0" class="st0" d="M240,120c0,66.3-53.7,120-120,120S0,186.3,0,120S53.7,0,120,0S240,53.7,240,120z"/>
<linearGradient id="path2991_1_" gradientUnits="userSpaceOnUse" x1="129.0078" y1="723.6343" x2="154.0078" y2="763.6343" gradientTransform="matrix(1 0 0 1 0 -599.8898)">
	<stop  offset="0" style="stop-color:#EFF7FC"/>
	<stop  offset="1" style="stop-color:#FFFFFF"/>
</linearGradient>
<path id="path2991" class="st1" d="M100,144.4l48.4,35.7c5.5,3,9.5,1.5,10.9-5.1L179,82.2c2-8.1-3.1-11.7-8.4-9.3L55,117.5
	c-7.9,3.2-7.8,7.6-1.4,9.5l29.7,9.3L152,93c3.2-2,6.2-0.9,3.8,1.3L100,144.4z"/>
</svg>
